<mxfile host="app.diagrams.net" modified="2020-12-19T09:59:43.567Z" agent="5.0 (Windows NT 10.0; Win64; x64) AppleWebKit/537.36 (KHTML, like Gecko) Chrome/87.0.4280.88 Safari/537.36 Edg/87.0.664.60" etag="qwiYEM50HJ51KflTGeOK" version="14.1.1" type="github">
  <diagram id="vZbrAyiNAhaok1SoTU5t" name="Page-1">
    <mxGraphModel dx="981" dy="526" grid="1" gridSize="10" guides="1" tooltips="1" connect="1" arrows="1" fold="1" page="1" pageScale="1" pageWidth="827" pageHeight="1169" math="0" shadow="0">
      <root>
        <mxCell id="0" />
        <mxCell id="1" parent="0" />
        <mxCell id="Ce5zNbr84AqYA6ZTZBWh-1" value="IMU" style="rounded=0;whiteSpace=wrap;html=1;" vertex="1" parent="1">
          <mxGeometry x="200" y="320" width="80" height="40" as="geometry" />
        </mxCell>
        <mxCell id="Ce5zNbr84AqYA6ZTZBWh-2" value="轮式里程计" style="rounded=0;whiteSpace=wrap;html=1;" vertex="1" parent="1">
          <mxGeometry x="200" y="400" width="80" height="40" as="geometry" />
        </mxCell>
        <mxCell id="Ce5zNbr84AqYA6ZTZBWh-6" value="" style="endArrow=none;html=1;" edge="1" parent="1">
          <mxGeometry width="50" height="50" relative="1" as="geometry">
            <mxPoint x="280" y="340" as="sourcePoint" />
            <mxPoint x="320" y="340" as="targetPoint" />
          </mxGeometry>
        </mxCell>
        <mxCell id="Ce5zNbr84AqYA6ZTZBWh-7" value="" style="endArrow=none;html=1;" edge="1" parent="1">
          <mxGeometry width="50" height="50" relative="1" as="geometry">
            <mxPoint x="280" y="419.65999999999985" as="sourcePoint" />
            <mxPoint x="320" y="419.65999999999985" as="targetPoint" />
          </mxGeometry>
        </mxCell>
        <mxCell id="Ce5zNbr84AqYA6ZTZBWh-8" value="" style="endArrow=none;html=1;" edge="1" parent="1">
          <mxGeometry width="50" height="50" relative="1" as="geometry">
            <mxPoint x="320" y="420" as="sourcePoint" />
            <mxPoint x="320" y="340" as="targetPoint" />
          </mxGeometry>
        </mxCell>
        <mxCell id="Ce5zNbr84AqYA6ZTZBWh-9" value="" style="endArrow=classic;html=1;" edge="1" parent="1">
          <mxGeometry width="50" height="50" relative="1" as="geometry">
            <mxPoint x="320" y="380" as="sourcePoint" />
            <mxPoint x="360" y="380" as="targetPoint" />
          </mxGeometry>
        </mxCell>
        <mxCell id="Ce5zNbr84AqYA6ZTZBWh-10" value="误差状态卡尔曼滤波" style="rounded=1;whiteSpace=wrap;html=1;" vertex="1" parent="1">
          <mxGeometry x="360" y="360" width="80" height="40" as="geometry" />
        </mxCell>
        <mxCell id="Ce5zNbr84AqYA6ZTZBWh-11" value="激光雷达" style="rounded=0;whiteSpace=wrap;html=1;" vertex="1" parent="1">
          <mxGeometry x="200" y="240" width="80" height="40" as="geometry" />
        </mxCell>
        <mxCell id="Ce5zNbr84AqYA6ZTZBWh-12" value="" style="endArrow=none;html=1;" edge="1" parent="1" target="Ce5zNbr84AqYA6ZTZBWh-13">
          <mxGeometry width="50" height="50" relative="1" as="geometry">
            <mxPoint x="280" y="260" as="sourcePoint" />
            <mxPoint x="360" y="260" as="targetPoint" />
          </mxGeometry>
        </mxCell>
        <mxCell id="Ce5zNbr84AqYA6ZTZBWh-13" value="扫描匹配" style="rounded=0;whiteSpace=wrap;html=1;" vertex="1" parent="1">
          <mxGeometry x="360" y="240" width="80" height="40" as="geometry" />
        </mxCell>
        <mxCell id="Ce5zNbr84AqYA6ZTZBWh-14" value="" style="endArrow=classic;html=1;exitX=0.5;exitY=0;exitDx=0;exitDy=0;" edge="1" parent="1" source="Ce5zNbr84AqYA6ZTZBWh-10">
          <mxGeometry width="50" height="50" relative="1" as="geometry">
            <mxPoint x="350" y="330" as="sourcePoint" />
            <mxPoint x="400" y="280" as="targetPoint" />
          </mxGeometry>
        </mxCell>
        <mxCell id="Ce5zNbr84AqYA6ZTZBWh-16" value="" style="endArrow=classic;html=1;" edge="1" parent="1">
          <mxGeometry width="50" height="50" relative="1" as="geometry">
            <mxPoint x="440" y="260" as="sourcePoint" />
            <mxPoint x="520" y="260" as="targetPoint" />
          </mxGeometry>
        </mxCell>
        <mxCell id="Ce5zNbr84AqYA6ZTZBWh-17" value="" style="endArrow=classic;html=1;entryX=1;entryY=0.25;entryDx=0;entryDy=0;" edge="1" parent="1" target="Ce5zNbr84AqYA6ZTZBWh-10">
          <mxGeometry width="50" height="50" relative="1" as="geometry">
            <mxPoint x="460" y="260" as="sourcePoint" />
            <mxPoint x="460" y="390" as="targetPoint" />
            <Array as="points">
              <mxPoint x="460" y="370" />
            </Array>
          </mxGeometry>
        </mxCell>
        <mxCell id="Ce5zNbr84AqYA6ZTZBWh-18" value="" style="endArrow=classic;html=1;" edge="1" parent="1" source="Ce5zNbr84AqYA6ZTZBWh-25">
          <mxGeometry width="50" height="50" relative="1" as="geometry">
            <mxPoint x="440" y="380" as="sourcePoint" />
            <mxPoint x="520" y="380" as="targetPoint" />
          </mxGeometry>
        </mxCell>
        <mxCell id="Ce5zNbr84AqYA6ZTZBWh-19" value="激光点云" style="text;html=1;strokeColor=none;fillColor=none;align=center;verticalAlign=middle;whiteSpace=wrap;rounded=0;" vertex="1" parent="1">
          <mxGeometry x="300" y="260" width="50" height="20" as="geometry" />
        </mxCell>
        <mxCell id="Ce5zNbr84AqYA6ZTZBWh-20" value="加速度，角速度" style="text;html=1;strokeColor=none;fillColor=none;align=center;verticalAlign=middle;whiteSpace=wrap;rounded=0;" vertex="1" parent="1">
          <mxGeometry x="280" y="320" width="90" height="20" as="geometry" />
        </mxCell>
        <mxCell id="Ce5zNbr84AqYA6ZTZBWh-22" value="位姿" style="text;html=1;strokeColor=none;fillColor=none;align=center;verticalAlign=middle;whiteSpace=wrap;rounded=0;" vertex="1" parent="1">
          <mxGeometry x="290" y="420" width="40" height="20" as="geometry" />
        </mxCell>
        <mxCell id="Ce5zNbr84AqYA6ZTZBWh-23" value="初始 位姿" style="text;html=1;strokeColor=none;fillColor=none;align=center;verticalAlign=middle;whiteSpace=wrap;rounded=0;" vertex="1" parent="1">
          <mxGeometry x="400" y="310" width="40" height="20" as="geometry" />
        </mxCell>
        <mxCell id="Ce5zNbr84AqYA6ZTZBWh-24" value="优化&amp;nbsp; 位姿" style="text;html=1;strokeColor=none;fillColor=none;align=center;verticalAlign=middle;whiteSpace=wrap;rounded=0;" vertex="1" parent="1">
          <mxGeometry x="460" y="290" width="40" height="60" as="geometry" />
        </mxCell>
        <mxCell id="Ce5zNbr84AqYA6ZTZBWh-25" value="融合位姿" style="text;html=1;strokeColor=none;fillColor=none;align=center;verticalAlign=middle;whiteSpace=wrap;rounded=0;" vertex="1" parent="1">
          <mxGeometry x="445" y="380" width="70" height="20" as="geometry" />
        </mxCell>
        <mxCell id="Ce5zNbr84AqYA6ZTZBWh-26" value="" style="endArrow=classic;html=1;" edge="1" parent="1" target="Ce5zNbr84AqYA6ZTZBWh-25">
          <mxGeometry width="50" height="50" relative="1" as="geometry">
            <mxPoint x="440" y="379.9999999999999" as="sourcePoint" />
            <mxPoint x="520" y="379.9999999999999" as="targetPoint" />
          </mxGeometry>
        </mxCell>
      </root>
    </mxGraphModel>
  </diagram>
</mxfile>
